<svg width="250" height="250" viewBox="0 0 250 250" fill="none" xmlns="http://www.w3.org/2000/svg">
<path d="M140.625 34.375C126.545 34.371 112.749 38.3317 100.815 45.8036C88.8809 53.2755 79.2922 63.9567 73.1462 76.6244C67.0001 89.2921 64.5452 103.434 66.0624 117.432C67.5796 131.43 73.0076 144.718 81.725 155.775L34.375 203.125L46.875 215.625L94.225 168.275C103.619 175.68 114.647 180.731 126.39 183.006C138.134 185.281 150.25 184.714 161.73 181.353C173.209 177.992 183.719 171.934 192.38 163.685C201.042 155.435 207.605 145.234 211.521 133.932C215.438 122.63 216.594 110.555 214.894 98.7149C213.194 86.8749 208.687 75.6133 201.748 65.8699C194.81 56.1265 185.641 48.1839 175.008 42.7051C164.376 37.2263 152.586 34.3701 140.625 34.375Z" fill="#E5E6EB"/>
<path d="M68.75 168.75L34.3758 203.124L46.8761 215.625L81.2503 181.25L68.75 168.75Z" fill="#444444"/>
<path d="M75.0002 175L40.626 209.374L46.875 215.623L81.2493 181.249L75.0002 175Z" fill="black"/>
<path d="M140.625 171.875C175.143 171.875 203.125 143.893 203.125 109.375C203.125 74.8572 175.143 46.875 140.625 46.875C106.107 46.875 78.125 74.8572 78.125 109.375C78.125 143.893 106.107 171.875 140.625 171.875Z" fill="#D9DAE2"/>
<path d="M140.625 168.75C173.417 168.75 200 142.167 200 109.375C200 76.5831 173.417 50 140.625 50C107.833 50 81.25 76.5831 81.25 109.375C81.25 142.167 107.833 168.75 140.625 168.75Z" fill="#B4C5E4"/>
<path d="M184.375 128.125H100V134.375H184.375V128.125Z" fill="white"/>
<path d="M121.875 106.25H109.375V131.25H121.875V106.25Z" fill="black"/>
<path d="M146.875 87.5H134.375V131.25H146.875V87.5Z" fill="black"/>
<path d="M171.875 81.25H159.375V131.25H171.875V81.25Z" fill="black"/>
<path d="M190.431 53.3187C203.066 67.6253 209.771 86.2112 209.18 105.289C208.589 124.368 200.746 142.502 187.249 155.999C173.752 169.496 155.617 177.339 136.539 177.93C117.461 178.522 98.8753 171.816 84.5687 159.181C91.3475 166.857 99.6262 173.063 108.895 177.417C118.163 181.771 128.225 184.181 138.461 184.498C148.696 184.815 158.888 183.033 168.408 179.261C177.929 175.489 186.576 169.808 193.817 162.567C201.058 155.326 206.739 146.679 210.511 137.158C214.283 127.638 216.065 117.446 215.748 107.211C215.431 96.9753 213.021 86.9133 208.667 77.6448C204.313 68.3762 198.107 60.0975 190.431 53.3187Z" fill="#CFCFD9"/>
<path d="M75 175L81.25 181.25L94.2375 168.263C91.9151 166.437 89.7029 164.475 87.6125 162.387L75 175Z" fill="#D9DAE2"/>
<path d="M140.625 46.875C128.264 46.875 116.18 50.5406 105.902 57.4081C95.6238 64.2757 87.613 74.0369 82.8826 85.4573C78.1521 96.8777 76.9144 109.444 79.3259 121.568C81.7375 133.692 87.6901 144.828 96.4309 153.569C105.172 162.31 116.308 168.263 128.432 170.674C140.556 173.086 153.122 171.848 164.543 167.117C175.963 162.387 185.724 154.376 192.592 144.098C199.459 133.82 203.125 121.736 203.125 109.375C203.106 92.8048 196.515 76.9187 184.798 65.2018C173.081 53.4849 157.195 46.894 140.625 46.875ZM140.625 165.625C129.5 165.625 118.624 162.326 109.374 156.145C100.124 149.964 92.9142 141.179 88.6568 130.901C84.3994 120.623 83.2854 109.313 85.4559 98.4012C87.6263 87.4897 92.9836 77.4669 100.85 69.6002C108.717 61.7335 118.74 56.3762 129.651 54.2058C140.563 52.0354 151.873 53.1493 162.151 57.4068C172.429 61.6642 181.214 68.8739 187.395 78.1242C193.576 87.3744 196.875 98.2498 196.875 109.375C196.858 124.288 190.926 138.585 180.381 149.131C169.835 159.676 155.538 165.608 140.625 165.625Z" fill="black"/>
<path d="M140.625 31.25C119.912 31.2732 100.054 39.5116 85.4079 54.1579C70.7616 68.8041 62.5232 88.6621 62.5 109.375C62.4431 125.969 67.7324 142.141 77.5844 155.494L32.1656 200.916C31.5798 201.502 31.2507 202.296 31.2507 203.125C31.2507 203.954 31.5798 204.748 32.1656 205.334L44.6656 217.834C45.2517 218.42 46.0464 218.749 46.875 218.749C47.7036 218.749 48.4984 218.42 49.0844 217.834L94.5031 172.416C107.858 182.267 124.03 187.556 140.625 187.5C161.345 187.5 181.216 179.269 195.868 164.618C210.519 149.966 218.75 130.095 218.75 109.375C218.75 88.655 210.519 68.7836 195.868 54.1323C181.216 39.481 161.345 31.25 140.625 31.25ZM46.875 211.206L38.7938 203.125L68.75 173.169L76.8313 181.25L46.875 211.206ZM140.625 181.25C124.481 181.303 108.8 175.861 96.1594 165.819C95.5582 165.346 94.8043 165.109 94.0406 165.155C93.2769 165.2 92.5564 165.524 92.0156 166.066L81.25 176.831L73.1688 168.75L83.9344 157.984C84.4752 157.443 84.7987 156.723 84.8436 155.959C84.8886 155.195 84.6518 154.441 84.1781 153.841C74.1376 141.199 68.6967 125.518 68.75 109.375C68.75 95.1595 72.9654 81.2632 80.8631 69.4434C88.7609 57.6236 99.9862 48.4112 113.12 42.9712C126.253 37.5311 140.705 36.1077 154.647 38.8811C168.59 41.6544 181.396 48.4998 191.448 58.5517C201.5 68.6036 208.346 81.4105 211.119 95.3529C213.892 109.295 212.469 123.747 207.029 136.88C201.589 150.014 192.376 161.239 180.557 169.137C168.737 177.035 154.841 181.25 140.625 181.25Z" fill="black"/>
</svg>
