<svg width="9" height="9" viewBox="0 0 9 9" fill="none" xmlns="http://www.w3.org/2000/svg">
<path d="M3.00036 4.5C3.00036 3.6716 3.67175 2.99988 4.50018 2.99988C5.32861 2.99988 6.00036 3.6716 6.00036 4.5C6.00036 5.3284 5.32861 6.00012 4.50018 6.00012C3.67175 6.00012 3.00036 5.3284 3.00036 4.5ZM2.18939 4.5C2.18939 5.7762 3.22393 6.8107 4.50018 6.8107C5.77643 6.8107 6.81097 5.7762 6.81097 4.5C6.81097 3.2238 5.77643 2.1893 4.50018 2.1893C3.22393 2.1893 2.18939 3.2238 2.18939 4.5ZM6.36243 2.09768C6.36231 2.39592 6.60399 2.63778 6.90223 2.6379C7.20048 2.63802 7.44235 2.39635 7.44247 2.09812C7.44259 1.79988 7.20091 1.55802 6.90266 1.5579C6.60456 1.55804 6.36268 1.79959 6.36243 2.09768ZM2.68211 8.16289C2.24336 8.14291 2.00488 8.06983 1.84641 8.00809C1.6363 7.9263 1.48639 7.82888 1.32878 7.67149C1.17116 7.5141 1.0736 7.36434 0.992164 7.15424C0.930385 6.99584 0.857302 6.75731 0.837358 6.31858C0.815541 5.84424 0.811184 5.70175 0.811184 4.50004C0.811184 3.29832 0.815901 3.15623 0.837358 2.6815C0.857338 2.24276 0.930961 2.0047 0.992164 1.84583C1.07396 1.63573 1.17138 1.48583 1.32878 1.32822C1.48618 1.17061 1.63594 1.07305 1.84641 0.99162C2.00481 0.929844 2.24336 0.856764 2.68211 0.83682C3.15646 0.815004 3.29896 0.810648 4.50018 0.810648C5.7014 0.810648 5.84404 0.815364 6.31879 0.83682C6.75754 0.8568 6.99562 0.93042 7.15449 0.99162C7.3646 1.07305 7.51451 1.17083 7.67212 1.32822C7.82974 1.48561 7.92694 1.63573 8.00874 1.84583C8.07051 2.00423 8.1436 2.24276 8.16354 2.6815C8.18536 3.15623 8.18972 3.29832 8.18972 4.50004C8.18972 5.70175 8.18536 5.84384 8.16354 6.31858C8.14356 6.75731 8.07012 6.99577 8.00874 7.15424C7.92694 7.36434 7.82952 7.51424 7.67212 7.67149C7.51472 7.82874 7.3646 7.9263 7.15449 8.00809C6.99609 8.06987 6.75754 8.14295 6.31879 8.16289C5.84444 8.18471 5.70194 8.18906 4.50018 8.18906C3.29842 8.18906 3.15632 8.18471 2.68211 8.16289ZM2.64485 0.027252C2.16577 0.049068 1.83841 0.125028 1.55253 0.236268C1.25645 0.351144 1.00581 0.50526 0.755346 0.755316C0.504884 1.00537 0.351158 1.2564 0.236277 1.55246C0.125033 1.83852 0.04907 2.16569 0.0272531 2.64474C0.0050762 3.12455 0 3.27794 0 4.5C0 5.72206 0.0050762 5.87545 0.0272531 6.35526C0.04907 6.83435 0.125033 7.16148 0.236277 7.44754C0.351158 7.74342 0.50492 7.99474 0.755346 8.24468C1.00577 8.49463 1.25645 8.64853 1.55253 8.76373C1.83895 8.87497 2.16577 8.95093 2.64485 8.97275C3.12493 8.99456 3.27808 9 4.50018 9C5.72229 9 5.87569 8.99492 6.35551 8.97275C6.83462 8.95093 7.16177 8.87497 7.44783 8.76373C7.74373 8.64853 7.99455 8.49474 8.24501 8.24468C8.49548 7.99463 8.64888 7.74342 8.76408 7.44754C8.87533 7.16148 8.95165 6.83431 8.97311 6.35526C8.99492 5.87509 9 5.72206 9 4.5C9 3.27794 8.99492 3.12455 8.97311 2.64474C8.95129 2.16565 8.87533 1.83834 8.76408 1.55246C8.64888 1.25658 8.49508 1.00577 8.24501 0.755316C7.99495 0.504864 7.74373 0.351144 7.44819 0.236268C7.16177 0.125028 6.83459 0.048708 6.35587 0.027252C5.87605 0.005436 5.72264 0 4.50054 0C3.27844 0 3.12493 0.005076 2.64485 0.027252Z" fill="url(#paint0_radial_23_9)"/>
<defs>
<radialGradient id="paint0_radial_23_9" cx="0" cy="0" r="1" gradientUnits="userSpaceOnUse" gradientTransform="translate(19.132 144.68) scale(187.987)">
<stop offset="0.09" stop-color="#FA8F21"/>
<stop offset="0.78" stop-color="#D82D7E"/>
</radialGradient>
</defs>
</svg>
