<svg width="9" height="9" viewBox="0 0 9 9" fill="none" xmlns="http://www.w3.org/2000/svg">
<path d="M8.33337 0H0.664375C0.297625 0 0 0.290625 0 0.6485V8.35063C0 8.709 0.297625 9 0.664375 9H8.33337C8.70037 9 9 8.709 9 8.35063V0.6485C9 0.290625 8.70037 0 8.33337 0ZM2.66925 7.66925H1.33375V3.37437H2.66925V7.66925ZM2.0015 2.78713C1.57362 2.78713 1.22775 2.44038 1.22775 2.01288C1.22775 1.586 1.57362 1.23925 2.0015 1.23925C2.42837 1.23925 2.77513 1.586 2.77513 2.01288C2.77513 2.44038 2.42837 2.78713 2.0015 2.78713ZM7.66875 7.66925H6.33537V5.58075C6.33537 5.0825 6.32562 4.44187 5.6415 4.44187C4.94675 4.44187 4.84088 4.9845 4.84088 5.54462V7.66938H3.5065V3.37437H4.78713V3.96088H4.80538C4.98362 3.62337 5.41913 3.26725 6.06862 3.26725C7.41937 3.26725 7.66887 4.1565 7.66887 5.31337L7.66875 7.66925Z" fill="black"/>
</svg>
