<svg width="9" height="9" viewBox="0 0 9 9" fill="none" xmlns="http://www.w3.org/2000/svg">
<g clip-path="url(#clip0_25_13)">
<path d="M8.54297 6.90115C8.54297 7.80416 7.80416 8.54297 6.90115 8.54297H2.09885C1.19584 8.54297 0.457031 7.80416 0.457031 6.90115V2.09885C0.457031 1.19586 1.19584 0.457031 2.09885 0.457031H6.90115C7.80416 0.457031 8.54297 1.19586 8.54297 2.09885V6.90115Z" fill="black"/>
<path d="M5.10513 4.09684L7.05015 1.67264H6.48677L4.82353 3.7458L3.16011 1.67264H1.30298L3.89487 4.90315L1.94968 7.32752H2.51306L4.17647 5.25418L5.84007 7.32752H7.6972L5.10513 4.09684ZM2.2188 2.11207H2.94917L6.7812 6.88805H6.05083L2.2188 2.11207Z" fill="#F0F0F1"/>
</g>
<defs>
<clipPath id="clip0_25_13">
<rect width="9" height="9" fill="white"/>
</clipPath>
</defs>
</svg>
