<svg width="250" height="250" viewBox="0 0 250 250" fill="none" xmlns="http://www.w3.org/2000/svg">
<mask id="path-1-inside-1_58_3" fill="white">
<path d="M27.0422 91.5856C26.957 92.6705 27.4687 93.4633 28.0657 94.2979C28.4922 94.9238 29.0039 95.6332 29.0892 96.3425C29.2171 97.5109 29.8568 97.803 30.8377 98.0116C31.9464 98.262 32.842 98.8462 33.1405 100.015C33.439 101.099 34.036 101.392 35.1448 100.974C37.3197 100.181 39.4946 99.3052 41.6695 98.4706C41.6269 98.721 41.5416 99.0965 41.4989 99.4721C41.3284 100.974 41.0725 102.476 41.1151 103.937C41.1578 105.481 42.1386 106.441 43.5885 106.441C46.4031 106.441 49.1751 106.399 51.9896 106.315C53.3543 106.274 54.5483 105.773 55.4865 104.73C55.6145 104.605 55.7851 104.396 55.913 104.438C57.5761 104.73 58.4717 103.603 59.4952 102.643C60.6466 101.558 61.9686 100.807 63.6744 100.849C64.7405 100.891 65.8493 100.557 67.086 100.39C67.086 100.39 67.2566 100.599 67.3845 100.849C67.9816 101.767 68.2374 102.602 67.5125 103.645C67.1713 104.187 67.3419 105.064 67.2992 105.815C67.2566 106.357 67.3845 106.983 67.2139 107.484C66.9581 108.277 66.9154 108.986 67.2566 109.779C68.1948 111.782 69.6447 113.367 71.3505 114.744C72.2887 115.495 73.3122 115.746 74.5063 115.537C74.8901 115.495 75.3592 115.704 75.743 115.913C76.2547 116.205 76.6385 116.789 77.1503 116.914C77.9179 117.123 78.4296 117.457 78.8987 117.999C79.5384 118.75 80.3486 119.251 81.3721 119.084C82.1397 118.959 82.4809 119.167 82.6941 119.919C83.1632 121.504 84.1441 121.963 85.8072 121.588C86.2763 121.462 86.916 121.588 87.3851 121.796C88.4512 122.255 89.432 122.881 90.4555 123.34C91.1379 123.632 91.479 124.05 91.5643 124.717C91.6922 125.677 91.7775 126.595 91.7775 127.555C91.7349 128.848 91.9055 130.183 90.7541 131.227C90.5835 131.352 90.4982 131.686 90.4982 131.895C90.6261 132.98 90.8393 134.023 91.7349 134.774C93.2275 136.025 94.9759 136.776 96.9376 136.943C97.7905 137.027 98.686 136.943 99.5816 136.985C100.733 137.027 101.117 137.569 100.818 138.612C100.733 138.863 100.648 139.155 100.52 139.405C99.411 141.617 100.093 143.077 102.439 143.787C102.908 143.953 103.59 144.454 103.59 144.788C103.676 146.54 104.443 148.418 103.036 150.046C102.865 150.212 102.695 150.421 102.652 150.672C102.567 151.131 102.396 151.715 102.567 152.09C102.78 152.549 102.78 152.799 102.481 153.175C101.842 154.01 101.415 154.844 101.33 155.929C101.202 158.141 100.904 160.352 100.733 162.564C100.648 163.649 100.605 164.776 100.648 165.86C100.69 166.778 101.202 167.571 102.14 167.78C103.42 168.03 104.742 168.197 106.021 168.197C109.475 168.197 112.034 171.201 111.437 174.539C111.266 175.416 111.309 176.375 111.352 177.294C111.394 178.462 111.778 178.712 112.972 178.503C113.527 178.42 114.081 178.253 114.635 178.212C116 178.128 116.981 178.963 116.81 180.298C116.64 181.8 116.341 183.344 115.829 184.763C115.275 186.349 115.147 186.307 116.554 187.267C117.962 188.226 118.516 189.562 118.303 191.189C118.175 192.274 117.876 193.317 117.834 194.402C117.791 196.071 116.64 196.947 115.36 197.364C111.906 198.407 109.262 200.536 106.703 202.831C105.125 204.249 103.761 205.835 102.311 207.379C101.501 208.213 101.458 208.756 102.098 209.757C102.268 210.049 102.439 210.342 102.652 210.592C103.676 211.886 104.998 212.97 104.571 214.932C104.4 215.724 104.998 216.1 105.808 215.85C106.149 215.766 106.447 215.599 106.746 215.39C107.428 214.931 107.983 215.181 108.409 215.682C110.072 217.727 111.949 219.479 114.038 221.023C114.976 221.691 115.701 222.567 115.872 223.694C116 224.654 116.597 224.737 117.365 224.654C118.09 224.57 118.772 224.362 119.54 224.195C120.009 225.154 120.734 225.28 121.416 224.445C121.714 224.069 122.056 223.652 122.141 223.193C122.61 221.315 123.506 219.772 124.955 218.436C126.362 217.143 127.599 215.682 128.964 214.222C129.049 214.305 129.22 214.389 129.347 214.514C130.414 215.599 131.65 215.515 132.461 214.263C132.93 213.512 133.399 212.761 133.783 211.926C134.465 210.508 135.446 209.464 136.725 208.546C137.621 207.878 138.388 207.044 139.028 206.168C140.051 204.707 140.393 202.913 140.606 201.202C140.819 199.7 140.904 198.156 141.075 196.654C141.118 196.07 141.245 195.486 141.331 194.943C141.63 193.066 143.25 191.605 142.994 189.519C143.42 189.727 143.719 189.936 144.06 190.103C144.657 190.353 145.126 190.269 145.425 189.602C146.064 188.1 147.429 187.391 148.879 186.973C150.031 186.598 151.012 186.097 151.95 185.346C153.016 184.47 154.125 183.635 155.703 183.719C158.005 183.802 160.137 183.26 161.758 181.507C163.165 180.005 164.658 179.754 166.449 180.756C167.6 181.382 168.879 181.465 170.202 181.298C172.761 180.923 174.978 179.838 177.068 178.42C178.688 177.293 180.138 175.999 180.991 174.163C181.545 172.953 182.398 171.994 183.72 171.493C184.147 171.326 184.573 171.159 184.871 170.867C186.535 168.906 188.198 166.903 189.819 164.859C190.628 163.815 190.245 162.564 190.33 161.395C190.373 160.31 190.501 159.142 191.481 158.516C193.187 157.389 194.04 155.762 194.723 154.009C195.021 153.3 195.021 152.466 195.149 151.714C195.106 151.589 195.405 151.506 195.448 151.38C195.618 150.88 195.746 150.337 195.831 149.795C196.13 148.292 196.428 146.832 196.684 145.33C196.983 143.535 197.238 141.741 197.494 139.947C197.75 138.278 197.836 136.609 198.177 134.94C198.39 133.772 199.073 132.728 200.309 132.353C204.318 131.018 207.089 128.472 208.284 124.508C208.881 122.589 210.032 121.671 211.951 121.337C214.126 120.961 216.131 120.21 217.41 118.291C217.751 117.748 217.964 117.122 218.391 116.663C219.5 115.495 220.693 114.41 221.845 113.283C224.574 110.655 225.598 107.567 224.66 103.895C224.319 102.643 224.148 101.391 223.935 100.098C223.765 99.0544 223.85 97.9277 223.551 96.9263C222.869 94.7147 221.59 92.9622 218.988 92.5449C218.264 92.4197 217.581 92.2111 216.856 92.1276C215.279 91.8773 213.956 91.2096 212.975 90.0413C211.27 87.9132 209.606 85.7016 208.029 83.49C207.005 82.0713 206.237 80.5274 204.147 80.3605C203.892 80.3605 203.593 79.9849 203.422 79.6928C202.57 78.2324 201.29 77.4813 199.627 77.3144C198.731 77.2309 197.751 77.1475 196.941 77.3978C194.595 78.1489 192.463 77.4813 190.373 76.6885C189.521 76.3964 188.668 75.8539 188.071 75.228C187.303 74.4352 186.365 74.0596 185.342 73.9345C183.38 73.6424 181.546 74.1848 179.755 74.8525C178.859 75.1863 177.921 75.5201 176.898 75.8539C177.367 74.0596 177.794 72.4323 178.262 70.8049C178.475 70.0121 178.391 69.5948 177.538 69.261C176.258 68.7185 175.064 68.0092 173.87 67.2998C173.273 66.9242 172.804 66.3818 172.164 66.0062C169.904 64.671 167.43 63.9199 164.829 63.4191C161.929 62.8767 159.2 63.294 156.812 65.13C155.618 66.048 154.424 66.9242 153.272 67.7588C152.888 66.8825 152.334 66.1314 151.652 65.5472C152.078 65.5055 152.547 65.3803 152.974 65.2134C153.827 64.8796 154.68 64.5041 155.404 64.0033C156.684 63.0436 157.963 62.0421 159.115 60.9155C159.797 60.2479 159.626 59.7054 158.731 59.2881C156.257 58.1198 153.613 57.6608 150.885 57.6608C149.605 57.6608 148.539 58.1615 147.558 58.7457C146.535 59.3716 145.639 60.1227 144.573 60.7069C143.72 61.1659 142.824 61.6249 141.545 61.3328C141.928 60.5399 142.141 59.7471 142.611 59.1212C144.53 56.5341 146.918 54.4895 149.775 52.9455C150.586 52.5283 151.268 51.9858 151.098 50.9426C150.97 50.1915 151.268 49.6908 151.865 49.2735C152.334 48.9397 152.761 48.5642 153.358 48.0634C152.804 47.7713 152.462 47.521 152.036 47.3958C151.226 47.1037 150.287 46.9785 149.52 46.603C149.008 46.3526 148.496 45.8519 148.368 45.3512C148.112 44.3914 148.198 43.3482 147.942 42.3468C147.43 40.0518 146.791 37.7568 146.236 35.6704C145.17 34.961 144.487 35.3783 143.891 36.0459C143.294 36.6718 142.611 37.2143 142.057 37.8819C141.801 38.2158 141.587 38.7165 141.673 39.1338C141.844 40.3856 141.844 40.5942 140.65 40.8863C139.584 41.1784 138.944 41.8043 138.603 42.7223C138.347 43.39 137.835 43.7238 137.153 43.8907C135.234 44.3497 133.358 44.2245 131.439 43.9741C129.989 43.7655 128.667 43.4317 127.814 42.1381C127.644 41.846 127.217 41.6374 126.918 41.5957C125.682 41.387 124.445 41.2619 123.208 41.0532C122.313 40.8863 121.801 41.1784 121.289 41.9295C120.394 43.3482 118.261 44.9339 115.916 44.0159C114.423 43.4317 112.845 43.6403 111.31 44.1411C109.86 44.6001 108.368 44.9339 106.875 45.1842C105.809 45.3929 104.743 45.226 103.89 44.4331C102.056 42.764 100.99 40.6777 100.692 38.2158C100.436 36.1711 101.246 34.4186 102.312 32.7912C103.464 31.0804 103.421 30.8717 101.843 29.6616C101.075 29.0774 100.777 28.4098 100.99 27.4918C101.075 27.1163 101.331 26.7407 101.246 26.4486C101.161 25.9896 100.948 25.4054 100.606 25.2385C99.6255 24.7378 98.8579 25.0299 98.0903 26.0731C97.0242 27.4501 96.086 28.994 94.1669 29.2861C92.8023 29.4947 91.395 29.6199 89.9877 29.7451C89.6466 29.7868 89.3054 29.6616 88.9642 29.7034C87.8981 29.7451 87.3437 30.4545 86.832 31.2473C85.9364 32.7077 85.5526 32.7495 84.2733 31.5811C84.1453 31.4976 84.06 31.3307 83.9321 31.289C82.7807 30.7048 81.6719 30.1206 80.5205 29.6616C80.222 29.5364 79.5823 29.8285 79.3691 30.1206C78.6015 31.1638 78.6015 32.3739 78.9 33.584C79.3264 35.1697 80.0941 36.3797 81.7572 37.1308C83.2071 37.7985 83.1219 39.5093 81.7572 40.2604C81.3308 40.5108 80.819 40.6359 80.3926 40.8863C77.4927 42.5137 74.5928 44.1411 71.693 45.8102C71.0959 46.1857 70.5415 46.1857 69.9445 45.9353C68.8357 45.4346 67.7696 45.3929 66.7461 46.144C66.6182 46.2692 66.2344 46.2692 66.0638 46.144C64.7418 45.2677 63.6757 44.2245 63.3772 42.5554C63.1213 41.095 62.3963 40.01 60.7758 39.6345C59.667 39.3841 58.6862 39.6345 57.6627 39.9683C56.2128 40.4273 54.8055 40.469 53.2703 40.2604C52.2041 40.0935 51.0954 40.1352 50.0292 40.2604C49.3043 40.3439 48.8352 40.928 48.7499 41.6791C48.6646 42.472 49.1763 42.931 49.8587 43.2231C50.3278 43.4317 50.8395 43.5569 51.1807 43.8907C51.5218 44.1828 51.8203 44.6835 51.8203 45.0591C51.8203 45.3512 51.3512 45.7684 51.0101 45.8936C50.4983 46.0605 49.9013 46.1022 49.3469 46.1022C47.3426 46.1857 46.4044 47.3958 47.2147 49.1901C47.7264 50.3167 48.4514 51.4016 49.2616 52.3614C50.7542 54.2391 50.9248 55.9917 49.5601 57.9111C48.7925 58.996 48.0676 60.1227 48.494 61.5831C48.5793 61.8752 48.4514 62.2508 48.2808 62.5429C47.6838 63.7947 47.2573 65.0882 47.3 66.5487C47.3 66.8825 47.172 67.2581 47.0441 67.5919C46.8309 68.343 46.4471 69.0941 46.4044 69.8452C46.2765 71.6812 45.4662 72.3488 43.7178 71.8064C42.0546 71.2639 40.6047 71.5143 39.1121 72.3071C38.6003 72.5575 37.9607 72.5992 37.3636 72.6409C36.6813 72.6409 35.999 72.5157 35.274 72.4323C35.1034 73.3503 34.4638 73.7258 33.6109 73.851C33.3976 73.8927 33.2271 74.0179 33.0565 74.1431C30.3272 75.9791 29.3464 78.8166 28.6214 81.7792C28.4082 82.572 28.3655 83.3231 27.3847 83.7821C26.745 84.0742 26.1906 84.7419 25.7642 85.3678C24.698 86.9117 24.7407 88.0383 25.9347 89.4988C26.7011 89.8748 27.1275 90.6254 27.0422 91.5856Z"/>
</mask>
<path d="M27.0422 91.5856C26.957 92.6705 27.4687 93.4633 28.0657 94.2979C28.4922 94.9238 29.0039 95.6332 29.0892 96.3425C29.2171 97.5109 29.8568 97.803 30.8377 98.0116C31.9464 98.262 32.842 98.8462 33.1405 100.015C33.439 101.099 34.036 101.392 35.1448 100.974C37.3197 100.181 39.4946 99.3052 41.6695 98.4706C41.6269 98.721 41.5416 99.0965 41.4989 99.4721C41.3284 100.974 41.0725 102.476 41.1151 103.937C41.1578 105.481 42.1386 106.441 43.5885 106.441C46.4031 106.441 49.1751 106.399 51.9896 106.315C53.3543 106.274 54.5483 105.773 55.4865 104.73C55.6145 104.605 55.7851 104.396 55.913 104.438C57.5761 104.73 58.4717 103.603 59.4952 102.643C60.6466 101.558 61.9686 100.807 63.6744 100.849C64.7405 100.891 65.8493 100.557 67.086 100.39C67.086 100.39 67.2566 100.599 67.3845 100.849C67.9816 101.767 68.2374 102.602 67.5125 103.645C67.1713 104.187 67.3419 105.064 67.2992 105.815C67.2566 106.357 67.3845 106.983 67.2139 107.484C66.9581 108.277 66.9154 108.986 67.2566 109.779C68.1948 111.782 69.6447 113.367 71.3505 114.744C72.2887 115.495 73.3122 115.746 74.5063 115.537C74.8901 115.495 75.3592 115.704 75.743 115.913C76.2547 116.205 76.6385 116.789 77.1503 116.914C77.9179 117.123 78.4296 117.457 78.8987 117.999C79.5384 118.75 80.3486 119.251 81.3721 119.084C82.1397 118.959 82.4809 119.167 82.6941 119.919C83.1632 121.504 84.1441 121.963 85.8072 121.588C86.2763 121.462 86.916 121.588 87.3851 121.796C88.4512 122.255 89.432 122.881 90.4555 123.34C91.1379 123.632 91.479 124.05 91.5643 124.717C91.6922 125.677 91.7775 126.595 91.7775 127.555C91.7349 128.848 91.9055 130.183 90.7541 131.227C90.5835 131.352 90.4982 131.686 90.4982 131.895C90.6261 132.98 90.8393 134.023 91.7349 134.774C93.2275 136.025 94.9759 136.776 96.9376 136.943C97.7905 137.027 98.686 136.943 99.5816 136.985C100.733 137.027 101.117 137.569 100.818 138.612C100.733 138.863 100.648 139.155 100.52 139.405C99.411 141.617 100.093 143.077 102.439 143.787C102.908 143.953 103.59 144.454 103.59 144.788C103.676 146.54 104.443 148.418 103.036 150.046C102.865 150.212 102.695 150.421 102.652 150.672C102.567 151.131 102.396 151.715 102.567 152.09C102.78 152.549 102.78 152.799 102.481 153.175C101.842 154.01 101.415 154.844 101.33 155.929C101.202 158.141 100.904 160.352 100.733 162.564C100.648 163.649 100.605 164.776 100.648 165.86C100.69 166.778 101.202 167.571 102.14 167.78C103.42 168.03 104.742 168.197 106.021 168.197C109.475 168.197 112.034 171.201 111.437 174.539C111.266 175.416 111.309 176.375 111.352 177.294C111.394 178.462 111.778 178.712 112.972 178.503C113.527 178.42 114.081 178.253 114.635 178.212C116 178.128 116.981 178.963 116.81 180.298C116.64 181.8 116.341 183.344 115.829 184.763C115.275 186.349 115.147 186.307 116.554 187.267C117.962 188.226 118.516 189.562 118.303 191.189C118.175 192.274 117.876 193.317 117.834 194.402C117.791 196.071 116.64 196.947 115.36 197.364C111.906 198.407 109.262 200.536 106.703 202.831C105.125 204.249 103.761 205.835 102.311 207.379C101.501 208.213 101.458 208.756 102.098 209.757C102.268 210.049 102.439 210.342 102.652 210.592C103.676 211.886 104.998 212.97 104.571 214.932C104.4 215.724 104.998 216.1 105.808 215.85C106.149 215.766 106.447 215.599 106.746 215.39C107.428 214.931 107.983 215.181 108.409 215.682C110.072 217.727 111.949 219.479 114.038 221.023C114.976 221.691 115.701 222.567 115.872 223.694C116 224.654 116.597 224.737 117.365 224.654C118.09 224.57 118.772 224.362 119.54 224.195C120.009 225.154 120.734 225.28 121.416 224.445C121.714 224.069 122.056 223.652 122.141 223.193C122.61 221.315 123.506 219.772 124.955 218.436C126.362 217.143 127.599 215.682 128.964 214.222C129.049 214.305 129.22 214.389 129.347 214.514C130.414 215.599 131.65 215.515 132.461 214.263C132.93 213.512 133.399 212.761 133.783 211.926C134.465 210.508 135.446 209.464 136.725 208.546C137.621 207.878 138.388 207.044 139.028 206.168C140.051 204.707 140.393 202.913 140.606 201.202C140.819 199.7 140.904 198.156 141.075 196.654C141.118 196.07 141.245 195.486 141.331 194.943C141.63 193.066 143.25 191.605 142.994 189.519C143.42 189.727 143.719 189.936 144.06 190.103C144.657 190.353 145.126 190.269 145.425 189.602C146.064 188.1 147.429 187.391 148.879 186.973C150.031 186.598 151.012 186.097 151.95 185.346C153.016 184.47 154.125 183.635 155.703 183.719C158.005 183.802 160.137 183.26 161.758 181.507C163.165 180.005 164.658 179.754 166.449 180.756C167.6 181.382 168.879 181.465 170.202 181.298C172.761 180.923 174.978 179.838 177.068 178.42C178.688 177.293 180.138 175.999 180.991 174.163C181.545 172.953 182.398 171.994 183.72 171.493C184.147 171.326 184.573 171.159 184.871 170.867C186.535 168.906 188.198 166.903 189.819 164.859C190.628 163.815 190.245 162.564 190.33 161.395C190.373 160.31 190.501 159.142 191.481 158.516C193.187 157.389 194.04 155.762 194.723 154.009C195.021 153.3 195.021 152.466 195.149 151.714C195.106 151.589 195.405 151.506 195.448 151.38C195.618 150.88 195.746 150.337 195.831 149.795C196.13 148.292 196.428 146.832 196.684 145.33C196.983 143.535 197.238 141.741 197.494 139.947C197.75 138.278 197.836 136.609 198.177 134.94C198.39 133.772 199.073 132.728 200.309 132.353C204.318 131.018 207.089 128.472 208.284 124.508C208.881 122.589 210.032 121.671 211.951 121.337C214.126 120.961 216.131 120.21 217.41 118.291C217.751 117.748 217.964 117.122 218.391 116.663C219.5 115.495 220.693 114.41 221.845 113.283C224.574 110.655 225.598 107.567 224.66 103.895C224.319 102.643 224.148 101.391 223.935 100.098C223.765 99.0544 223.85 97.9277 223.551 96.9263C222.869 94.7147 221.59 92.9622 218.988 92.5449C218.264 92.4197 217.581 92.2111 216.856 92.1276C215.279 91.8773 213.956 91.2096 212.975 90.0413C211.27 87.9132 209.606 85.7016 208.029 83.49C207.005 82.0713 206.237 80.5274 204.147 80.3605C203.892 80.3605 203.593 79.9849 203.422 79.6928C202.57 78.2324 201.29 77.4813 199.627 77.3144C198.731 77.2309 197.751 77.1475 196.941 77.3978C194.595 78.1489 192.463 77.4813 190.373 76.6885C189.521 76.3964 188.668 75.8539 188.071 75.228C187.303 74.4352 186.365 74.0596 185.342 73.9345C183.38 73.6424 181.546 74.1848 179.755 74.8525C178.859 75.1863 177.921 75.5201 176.898 75.8539C177.367 74.0596 177.794 72.4323 178.262 70.8049C178.475 70.0121 178.391 69.5948 177.538 69.261C176.258 68.7185 175.064 68.0092 173.87 67.2998C173.273 66.9242 172.804 66.3818 172.164 66.0062C169.904 64.671 167.43 63.9199 164.829 63.4191C161.929 62.8767 159.2 63.294 156.812 65.13C155.618 66.048 154.424 66.9242 153.272 67.7588C152.888 66.8825 152.334 66.1314 151.652 65.5472C152.078 65.5055 152.547 65.3803 152.974 65.2134C153.827 64.8796 154.68 64.5041 155.404 64.0033C156.684 63.0436 157.963 62.0421 159.115 60.9155C159.797 60.2479 159.626 59.7054 158.731 59.2881C156.257 58.1198 153.613 57.6608 150.885 57.6608C149.605 57.6608 148.539 58.1615 147.558 58.7457C146.535 59.3716 145.639 60.1227 144.573 60.7069C143.72 61.1659 142.824 61.6249 141.545 61.3328C141.928 60.5399 142.141 59.7471 142.611 59.1212C144.53 56.5341 146.918 54.4895 149.775 52.9455C150.586 52.5283 151.268 51.9858 151.098 50.9426C150.97 50.1915 151.268 49.6908 151.865 49.2735C152.334 48.9397 152.761 48.5642 153.358 48.0634C152.804 47.7713 152.462 47.521 152.036 47.3958C151.226 47.1037 150.287 46.9785 149.52 46.603C149.008 46.3526 148.496 45.8519 148.368 45.3512C148.112 44.3914 148.198 43.3482 147.942 42.3468C147.43 40.0518 146.791 37.7568 146.236 35.6704C145.17 34.961 144.487 35.3783 143.891 36.0459C143.294 36.6718 142.611 37.2143 142.057 37.8819C141.801 38.2158 141.587 38.7165 141.673 39.1338C141.844 40.3856 141.844 40.5942 140.65 40.8863C139.584 41.1784 138.944 41.8043 138.603 42.7223C138.347 43.39 137.835 43.7238 137.153 43.8907C135.234 44.3497 133.358 44.2245 131.439 43.9741C129.989 43.7655 128.667 43.4317 127.814 42.1381C127.644 41.846 127.217 41.6374 126.918 41.5957C125.682 41.387 124.445 41.2619 123.208 41.0532C122.313 40.8863 121.801 41.1784 121.289 41.9295C120.394 43.3482 118.261 44.9339 115.916 44.0159C114.423 43.4317 112.845 43.6403 111.31 44.1411C109.86 44.6001 108.368 44.9339 106.875 45.1842C105.809 45.3929 104.743 45.226 103.89 44.4331C102.056 42.764 100.99 40.6777 100.692 38.2158C100.436 36.1711 101.246 34.4186 102.312 32.7912C103.464 31.0804 103.421 30.8717 101.843 29.6616C101.075 29.0774 100.777 28.4098 100.99 27.4918C101.075 27.1163 101.331 26.7407 101.246 26.4486C101.161 25.9896 100.948 25.4054 100.606 25.2385C99.6255 24.7378 98.8579 25.0299 98.0903 26.0731C97.0242 27.4501 96.086 28.994 94.1669 29.2861C92.8023 29.4947 91.395 29.6199 89.9877 29.7451C89.6466 29.7868 89.3054 29.6616 88.9642 29.7034C87.8981 29.7451 87.3437 30.4545 86.832 31.2473C85.9364 32.7077 85.5526 32.7495 84.2733 31.5811C84.1453 31.4976 84.06 31.3307 83.9321 31.289C82.7807 30.7048 81.6719 30.1206 80.5205 29.6616C80.222 29.5364 79.5823 29.8285 79.3691 30.1206C78.6015 31.1638 78.6015 32.3739 78.9 33.584C79.3264 35.1697 80.0941 36.3797 81.7572 37.1308C83.2071 37.7985 83.1219 39.5093 81.7572 40.2604C81.3308 40.5108 80.819 40.6359 80.3926 40.8863C77.4927 42.5137 74.5928 44.1411 71.693 45.8102C71.0959 46.1857 70.5415 46.1857 69.9445 45.9353C68.8357 45.4346 67.7696 45.3929 66.7461 46.144C66.6182 46.2692 66.2344 46.2692 66.0638 46.144C64.7418 45.2677 63.6757 44.2245 63.3772 42.5554C63.1213 41.095 62.3963 40.01 60.7758 39.6345C59.667 39.3841 58.6862 39.6345 57.6627 39.9683C56.2128 40.4273 54.8055 40.469 53.2703 40.2604C52.2041 40.0935 51.0954 40.1352 50.0292 40.2604C49.3043 40.3439 48.8352 40.928 48.7499 41.6791C48.6646 42.472 49.1763 42.931 49.8587 43.2231C50.3278 43.4317 50.8395 43.5569 51.1807 43.8907C51.5218 44.1828 51.8203 44.6835 51.8203 45.0591C51.8203 45.3512 51.3512 45.7684 51.0101 45.8936C50.4983 46.0605 49.9013 46.1022 49.3469 46.1022C47.3426 46.1857 46.4044 47.3958 47.2147 49.1901C47.7264 50.3167 48.4514 51.4016 49.2616 52.3614C50.7542 54.2391 50.9248 55.9917 49.5601 57.9111C48.7925 58.996 48.0676 60.1227 48.494 61.5831C48.5793 61.8752 48.4514 62.2508 48.2808 62.5429C47.6838 63.7947 47.2573 65.0882 47.3 66.5487C47.3 66.8825 47.172 67.2581 47.0441 67.5919C46.8309 68.343 46.4471 69.0941 46.4044 69.8452C46.2765 71.6812 45.4662 72.3488 43.7178 71.8064C42.0546 71.2639 40.6047 71.5143 39.1121 72.3071C38.6003 72.5575 37.9607 72.5992 37.3636 72.6409C36.6813 72.6409 35.999 72.5157 35.274 72.4323C35.1034 73.3503 34.4638 73.7258 33.6109 73.851C33.3976 73.8927 33.2271 74.0179 33.0565 74.1431C30.3272 75.9791 29.3464 78.8166 28.6214 81.7792C28.4082 82.572 28.3655 83.3231 27.3847 83.7821C26.745 84.0742 26.1906 84.7419 25.7642 85.3678C24.698 86.9117 24.7407 88.0383 25.9347 89.4988C26.7011 89.8748 27.1275 90.6254 27.0422 91.5856Z" stroke="black" stroke-width="6" mask="url(#path-1-inside-1_58_3)"/>
</svg>
